<?xml version="1.0" encoding="UTF-8"?>
<svg width="29px" height="32px" viewBox="0 0 29 32" version="1.1" xmlns="http://www.w3.org/2000/svg" xmlns:xlink="http://www.w3.org/1999/xlink">
    <title>soc-logo (1)</title>
    <g id="SHC-|-238" stroke="none" stroke-width="1" fill="none" fill-rule="evenodd">
        <g id="238-Auth-Error-Page" transform="translate(-273.000000, -8.000000)">
            <g id="soc-logo-(1)" transform="translate(274.000000, 9.000000)">
                <path d="M13.5006628,0 C14.0380891,0 14.5755574,0.120921866 15.0687094,0.363317895 L15.2772177,0.474640712 L25.222735,6.21666671 C26.2582755,6.81459263 26.9230716,7.90015295 26.9937417,9.0852766 L27,9.2953706 L27,20.7802935 C27,21.9758379 26.392734,23.0945518 25.4015989,23.7484896 L25.2227533,23.8589868 L15.2774019,29.6009171 C14.7291839,29.917119 14.114366,30.0754289 13.5000303,30.0754289 C12.9622004,30.0754289 12.424591,29.9546269 11.931334,29.7123135 L11.7227823,29.6010234 L1.77726502,23.8589974 C0.74172447,23.2610715 0.076928445,22.1755586 0.006258332,20.9903954 L0,20.7802935 L0,9.2953706 C0,8.09987643 0.607266,6.98111788 1.59840115,6.32717494 L1.77724668,6.21667731 L11.7226994,0.474688561 C12.2711119,0.158203573 12.8859304,0 13.5006628,0 Z M13.5,0.82726758 C13.0283865,0.82726758 12.5568461,0.94913211 12.1364026,1.19243913 L12.1364026,1.19243913 L2.19130288,6.93422379 L2.02748146,7.03677794 C1.28333974,7.54047586 0.82817035,8.38891314 0.82817035,9.2953706 L0.82817035,9.2953706 L0.82817035,20.7802935 L0.83507643,20.9735516 C0.89925053,21.8702955 1.40670829,22.6884341 2.19126865,23.1414813 L2.19126865,23.1414813 L12.1368405,28.8834781 L12.319848,28.9802223 C12.6915734,29.1588634 13.0957598,29.2483965 13.5,29.2483965 C13.9716135,29.2483965 14.4431539,29.126532 14.8635974,28.883225 L14.8635974,28.883225 L24.8086951,23.1415022 L24.9725201,23.038933 C25.7166759,22.5351745 26.1718296,21.686805 26.1718296,20.7802935 L26.1718296,20.7802935 L26.1718296,9.2953706 L26.1649233,9.10212227 C26.1007471,8.20541627 25.593273,7.38721059 24.8087026,6.93422698 L24.8087026,6.93422698 L14.8631615,1.19218719 L14.6801532,1.09544252 C14.3084266,0.9168007 13.9042402,0.82726758 13.5,0.82726758 Z" id="Shape" stroke="#032E61"></path>
                <circle id="Oval" fill="#5DB8FF" fill-rule="nonzero" cx="13.496371" cy="14.9949269" r="7.4517996"></circle>
                <path d="M14.0454545,17.4113911 C14.0200668,17.4139991 13.9944787,17.4139991 13.9690909,17.4113911 C13.7692394,17.3830532 13.6013759,17.246664 13.5327273,17.0568456 L12.5672727,14.3486638 L12.0654545,15.2295729 C11.9676322,15.3990097 11.7865553,15.5030769 11.5909091,15.5023002 L6.04545455,15.5023002 C5.74420832,15.5023002 5.5,15.2580919 5.5,14.9568456 C5.5,14.6555994 5.74420832,14.4113911 6.04545455,14.4113911 L11.2745455,14.4113911 L12.2072727,12.7750275 C12.3132797,12.5893467 12.517997,12.4827231 12.7309091,12.5023002 C12.9423533,12.5218244 13.1232481,12.6622839 13.1945455,12.8623002 L14.2090909,15.6986638 L14.9645455,14.6377547 C15.0675205,14.4949891 15.2330641,14.4106938 15.4090909,14.4113911 L20.9545455,14.4113911 C21.2557917,14.4113911 21.5,14.6555994 21.5,14.9568456 C21.5,15.2580919 21.2557917,15.5023002 20.9545455,15.5023002 L15.6818182,15.5023002 L14.4818182,17.1850275 C14.3805367,17.3254647 14.2185928,17.409473 14.0454545,17.4113911 Z" id="Path" fill="#FFFFFF" fill-rule="nonzero"></path>
                <circle id="Oval" fill="#FFFFFF" fill-rule="nonzero" cx="18.798613" cy="9.7213456" r="1.43303838"></circle>
                <path d="M18.798613,11.7275993 C17.6905897,11.7275993 16.7923593,10.8293689 16.7923593,9.7213456 C16.7923593,8.61332226 17.6905897,7.71509186 18.798613,7.71509186 C19.9066364,7.71509186 20.8048668,8.61332226 20.8048668,9.7213456 C20.8048668,10.2534372 20.5934942,10.7637357 20.2172487,11.1399812 C19.8410031,11.5162268 19.3307046,11.7275993 18.798613,11.7275993 L18.798613,11.7275993 Z M18.798613,8.86152257 C18.3237459,8.86152257 17.93879,9.24647846 17.93879,9.7213456 C17.93879,10.1962128 18.3237459,10.5811686 18.798613,10.5811686 C19.2734802,10.5811686 19.6584361,10.1962128 19.6584361,9.7213456 C19.6584361,9.24647846 19.2734802,8.86152257 18.798613,8.86152257 L18.798613,8.86152257 Z" id="Shape" fill="#002E65" fill-rule="nonzero"></path>
                <path d="M19.6297753,9.8646494 C19.5609625,10.2722235 19.2118776,10.5731587 18.798613,10.5811686 C19.8381114,11.8166868 20.4066944,13.3802899 20.403616,14.9949269 C20.4068221,17.5642114 18.98195,19.9224073 16.705995,21.1145742 C14.4300399,22.3067412 11.6801368,22.1353323 9.5698458,20.6697589 C9.6028807,20.5578763 9.6221303,20.4423785 9.6271674,20.3258297 C9.6271674,19.5343844 8.98557423,18.8927913 8.19412898,18.8927913 C8.07758011,18.8978283 7.96208234,18.9170779 7.85019977,18.9501128 C7.03015633,17.7942426 6.58948753,16.412145 6.58912599,14.9949269 C6.59070763,11.1808161 9.6822603,8.08926348 13.496371,8.08768184 C15.1253311,8.0809784 16.7022708,8.66088524 17.93879,9.7213456 C17.937311,9.30451288 18.2428079,8.95013648 18.6553092,8.89018334 C16.2788718,6.88037198 12.9519408,6.43267416 10.128749,7.74278277 C7.30555725,9.05289138 5.49949805,11.882565 5.49998334,14.9949269 C5.49662004,16.6386059 6.00774397,18.242132 6.96171597,19.5806497 C6.83533598,19.7986854 6.76630962,20.0452081 6.7610906,20.2971689 C6.7610906,21.0886141 7.40268374,21.7302073 8.19412898,21.7302073 C8.44608977,21.7249882 8.69261247,21.6559619 8.91064818,21.5295819 C12.1912662,23.8411504 16.6776917,23.3596916 19.3931268,20.4046593 C22.1085619,17.4496269 22.2098458,12.9385785 19.6297753,9.8646494 Z" id="Path" fill="#002E65" fill-rule="nonzero"></path>
            </g>
        </g>
    </g>
</svg>